<svg width="150" height="71" viewBox="0 0 150 71" fill="none" xmlns="http://www.w3.org/2000/svg">
<g clip-path="url(#clip0_1_18)">
<path d="M95.6098 6.17142C95.1978 6.17186 94.7961 6.29678 94.4593 6.52915C94.1225 6.76153 93.867 7.09005 93.7277 7.46991H90.9028C90.7146 7.47056 90.5296 7.51763 90.3648 7.60678C90.2 7.69593 90.0608 7.8243 89.96 7.98004L89.3447 8.92181H86.1558L85.5552 7.98004C85.4564 7.82242 85.3176 7.69257 85.1524 7.60316C84.9871 7.51376 84.8011 7.46785 84.6123 7.46991H69.8507V8.79339H84.4631L85.0746 9.73515C85.1758 9.89141 85.3156 10.0201 85.4811 10.1093C85.6465 10.1985 85.8323 10.2452 86.0211 10.2453H89.4612C89.6497 10.2456 89.8351 10.199 90 10.1097C90.1649 10.0205 90.304 9.89159 90.4041 9.73515L91.0193 8.79339H93.7168C93.8402 9.13201 94.0562 9.43089 94.3412 9.65737C94.6262 9.88385 94.9693 10.0292 95.3329 10.0776C95.6965 10.126 96.0667 10.0755 96.403 9.93174C96.7393 9.78794 97.0288 9.55635 97.2399 9.26224C97.4511 8.96813 97.5756 8.62283 97.6 8.26405C97.6245 7.90527 97.5478 7.54681 97.3785 7.22783C97.2091 6.90885 96.9535 6.64161 96.6397 6.45531C96.3258 6.269 95.9658 6.1708 95.5988 6.17142H95.6098ZM95.6098 8.77199C95.4809 8.77199 95.3549 8.73454 95.2477 8.66437C95.1406 8.59421 95.0571 8.49447 95.0077 8.37779C94.9584 8.26112 94.9455 8.13273 94.9707 8.00886C94.9958 7.885 95.0579 7.77122 95.149 7.68192C95.2401 7.59261 95.3562 7.53179 95.4826 7.50715C95.609 7.48252 95.7401 7.49516 95.8591 7.54349C95.9782 7.59182 96.08 7.67367 96.1516 7.77868C96.2232 7.88368 96.2614 8.00714 96.2614 8.13344C96.2604 8.30217 96.1913 8.46367 96.0692 8.58265C95.9471 8.70163 95.782 8.76842 95.6098 8.76841V8.77199Z" fill="#222221"/>
<path d="M81.4743 12.9458C81.8413 12.9464 82.2013 12.8482 82.5152 12.6619C82.829 12.4756 83.0846 12.2083 83.2539 11.8893C83.4233 11.5704 83.5 11.2119 83.4755 10.8531C83.4511 10.4944 83.3265 10.149 83.1154 9.85494C82.9043 9.56084 82.6148 9.32924 82.2785 9.18544C81.9422 9.04165 81.572 8.99119 81.2084 9.03957C80.8448 9.08796 80.5017 9.23333 80.2167 9.45981C79.9317 9.68628 79.7157 9.98516 79.5923 10.3238H69.8507V11.6437H79.5923C79.7314 12.0239 79.9868 12.3529 80.3235 12.5859C80.6603 12.8189 81.0621 12.9445 81.4743 12.9458ZM81.4743 10.3452C81.6032 10.3452 81.7292 10.3826 81.8364 10.4528C81.9435 10.523 82.027 10.6227 82.0764 10.7394C82.1257 10.8561 82.1386 10.9844 82.1134 11.1083C82.0883 11.2322 82.0262 11.346 81.9351 11.4353C81.844 11.5246 81.7279 11.5854 81.6015 11.61C81.4751 11.6347 81.344 11.622 81.225 11.5737C81.1059 11.5253 81.0041 11.4435 80.9325 11.3385C80.8609 11.2335 80.8227 11.11 80.8227 10.9837C80.8227 10.8144 80.8914 10.652 81.0136 10.5322C81.1358 10.4125 81.3015 10.3452 81.4743 10.3452Z" fill="#222221"/>
<path d="M78.704 15.4357C78.8066 15.5923 78.9477 15.7211 79.1144 15.8102C79.2811 15.8994 79.4679 15.946 79.6578 15.9458H83.0907C83.28 15.9457 83.4662 15.899 83.6323 15.8098C83.7983 15.7207 83.9388 15.592 84.0408 15.4357L84.6523 14.4939H89.0826C89.2413 14.9293 89.5518 15.2958 89.9593 15.5287C90.3667 15.7617 90.8451 15.8461 91.3099 15.7672C91.7747 15.6883 92.1962 15.4511 92.5 15.0974C92.8038 14.7437 92.9704 14.2963 92.9704 13.834C92.9704 13.3717 92.8038 12.9243 92.5 12.5706C92.1962 12.2169 91.7747 11.9797 91.3099 11.9008C90.8451 11.8219 90.3667 11.9063 89.9593 12.1393C89.5518 12.3722 89.2413 12.7387 89.0826 13.1741H84.5286C84.3391 13.1732 84.1524 13.2195 83.9862 13.3088C83.82 13.398 83.6797 13.5272 83.5785 13.6842L82.9669 14.6224H79.7779L79.1664 13.6842C79.0651 13.5272 78.9248 13.398 78.7586 13.3088C78.5924 13.2195 78.4058 13.1732 78.2162 13.1741H69.8435V14.4939H78.0925L78.704 15.4357ZM90.9647 13.1955C91.0936 13.1955 91.2196 13.2329 91.3267 13.3031C91.4339 13.3732 91.5174 13.473 91.5667 13.5896C91.616 13.7063 91.6289 13.8347 91.6038 13.9586C91.5787 14.0824 91.5166 14.1962 91.4255 14.2855C91.3343 14.3748 91.2182 14.4356 91.0918 14.4603C90.9654 14.4849 90.8344 14.4723 90.7153 14.4239C90.5963 14.3756 90.4945 14.2938 90.4229 14.1888C90.3513 14.0837 90.3131 13.9603 90.3131 13.834C90.314 13.6649 90.383 13.5031 90.505 13.3835C90.627 13.264 90.7922 13.1964 90.9647 13.1955Z" fill="#222221"/>
<path d="M93.5166 15.9244C93.1048 15.9254 92.7033 16.0505 92.3666 16.2828C92.0299 16.5151 91.7743 16.8433 91.6345 17.2229H89.039L88.4674 16.3133C88.3643 16.1494 88.2202 16.014 88.0489 15.9198C87.8776 15.8255 87.6846 15.7756 87.4882 15.7746H85.9665C85.7673 15.7752 85.5716 15.8264 85.3987 15.9233C85.2258 16.0203 85.0815 16.1595 84.98 16.3275L84.4631 17.2229H69.8507V18.5464H84.5723C84.7719 18.5458 84.9679 18.4942 85.141 18.3966C85.314 18.299 85.458 18.1588 85.5588 17.9899L86.0976 17.0945H87.3753L87.9396 18.0042C88.0407 18.1693 88.1836 18.306 88.3546 18.4011C88.5255 18.4961 88.7187 18.5461 88.9152 18.5464H91.6272C91.7507 18.885 91.9667 19.1839 92.2517 19.4104C92.5367 19.6368 92.8797 19.7822 93.2433 19.8306C93.6069 19.879 93.9771 19.8285 94.3134 19.6847C94.6497 19.5409 94.9393 19.3093 95.1504 19.0152C95.3615 18.7211 95.4861 18.3758 95.5105 18.0171C95.5349 17.6583 95.4583 17.2998 95.2889 16.9808C95.1195 16.6618 94.864 16.3946 94.5501 16.2083C94.2363 16.022 93.8762 15.9238 93.5093 15.9244H93.5166ZM93.5166 18.525C93.3868 18.5257 93.2598 18.4886 93.1515 18.4185C93.0433 18.3484 92.9587 18.2483 92.9086 18.1311C92.8584 18.0138 92.8449 17.8846 92.8698 17.7598C92.8947 17.635 92.9568 17.5203 93.0483 17.4301C93.1398 17.3399 93.2565 17.2784 93.3838 17.2534C93.511 17.2283 93.6429 17.2408 93.7628 17.2893C93.8828 17.3378 93.9853 17.4201 94.0575 17.5258C94.1297 17.6314 94.1682 17.7557 94.1682 17.8829C94.1682 18.0525 94.0996 18.2153 93.9776 18.3357C93.8555 18.456 93.6897 18.524 93.5166 18.525Z" fill="#222221"/>
<path d="M97.4372 29.0771L84.0553 22.3242L84.0189 19.7058H80.4259V21.9282L56.6181 25.2886L54.2992 3.34613L80.4259 3.7421V6.41044H83.8369L83.7787 2.23313C83.772 1.73688 83.5677 1.26283 83.2092 0.91223C82.8508 0.561631 82.3666 0.362272 81.8602 0.356728L52.4499 -2.40231e-06C52.2012 -0.00287269 51.9546 0.0459206 51.7264 0.143166C51.4983 0.240412 51.2937 0.383908 51.1263 0.564203C50.9588 0.744499 50.8322 0.957507 50.7548 1.18921C50.6773 1.42091 50.6509 1.66606 50.6771 1.90851L53.4911 27.8535L66.7055 46.1288C66.9849 46.5133 67.3976 46.7851 67.8665 46.8934C68.3354 47.0017 68.8285 46.9392 69.2537 46.7174L97.4554 32.0023C97.7268 31.8607 97.9535 31.6491 98.1109 31.3903C98.2684 31.1316 98.3506 30.8355 98.3488 30.5343C98.3469 30.233 98.261 29.938 98.1003 29.6811C97.9396 29.4243 97.7103 29.2154 97.4372 29.0771ZM87.4044 34.478L78.0269 39.4722C77.8956 39.5427 77.7426 39.5638 77.5965 39.5316C77.4504 39.4995 77.3213 39.4162 77.2334 39.2974L74.5213 35.6302C74.4805 35.5745 74.4534 35.5103 74.4421 35.4427C74.4307 35.375 74.4355 35.3057 74.4559 35.2402C74.4763 35.1746 74.5119 35.1145 74.5598 35.0646C74.6078 35.0147 74.6669 34.9763 74.7324 34.9524L83.2253 31.8703C83.3127 31.838 83.4059 31.8235 83.4992 31.8278C83.5925 31.8321 83.6839 31.855 83.7677 31.8952L87.379 33.5683C87.467 33.6076 87.542 33.6704 87.5955 33.7494C87.6489 33.8284 87.6787 33.9206 87.6813 34.0153C87.684 34.1101 87.6594 34.2037 87.6105 34.2855C87.5615 34.3673 87.4901 34.434 87.4044 34.478Z" fill="#144172"/>
<path d="M14.3466 59.046C14.2459 58.9935 14.1347 58.9634 14.0208 58.9578C13.9069 58.9523 13.7931 58.9714 13.6877 59.0139C13.5902 59.0441 13.5054 59.1047 13.4463 59.1865C13.3871 59.2683 13.3568 59.3667 13.36 59.4669C13.36 60.3682 12.109 60.8189 9.60684 60.8189C9.17 60.8189 8.46742 60.7975 7.50273 60.7547C7.98811 58.8521 9.12874 55.1338 10.9246 49.5997C11.5581 47.7519 11.569 46.1775 10.9574 44.8766C10.3458 43.5758 9.20519 42.9265 7.53549 42.9289C6.1704 42.9454 4.85918 43.4533 3.85147 44.3558C2.78203 45.2123 1.91298 46.2842 1.30324 47.4986C0.812578 48.4165 0.531834 49.4281 0.480523 50.463C0.469949 51.0041 0.605586 51.5382 0.873677 52.0112C1.00448 52.2956 1.21787 52.5359 1.4872 52.7021C1.75653 52.8683 2.06985 52.9531 2.38806 52.9459C2.48328 52.9505 2.57839 52.9348 2.66689 52.9001C2.75538 52.8654 2.83519 52.8123 2.90085 52.7446C2.96651 52.6768 3.01649 52.596 3.04735 52.5076C3.07822 52.4193 3.08927 52.3254 3.07972 52.2324C3.12655 51.1583 3.36559 50.1005 3.78595 49.1075C4.22764 47.9408 4.84084 46.8436 5.60611 45.8505C6.33418 44.8992 7.00886 44.4236 7.63014 44.4236C7.7727 44.4125 7.91455 44.4522 8.0296 44.5355C8.14465 44.6187 8.22514 44.7399 8.25628 44.8766C8.38733 45.3903 8.10217 46.734 7.4008 48.9077C6.93726 50.3346 6.46523 51.7413 5.98471 53.1278C5.50418 54.5262 5.15107 55.5357 4.93265 56.16C4.71423 56.7843 4.52493 57.3907 4.37204 57.9829C4.23388 58.4714 4.15686 58.9745 4.1427 59.4812C4.13753 59.9406 4.30169 60.3865 4.60502 60.7369C3.14889 60.8486 2.01917 61.2256 1.21587 61.8677C0.412569 62.5098 0.00970533 63.6228 0.00727844 65.2067C0.0120309 65.3683 0.0688074 65.5244 0.169493 65.6525C0.270178 65.7807 0.409619 65.8743 0.56789 65.9202C0.931924 66.0058 1.09574 65.888 1.09574 65.5634C1.09478 65.2913 1.18409 65.0262 1.3502 64.8081C1.51631 64.59 1.75023 64.4307 2.01674 64.3541C2.69852 64.0999 3.42441 63.9787 4.15362 63.9974C5.41677 63.9889 6.67945 64.0484 7.93593 64.1757C8.74415 64.2747 9.55701 64.333 10.3713 64.3505C10.8568 64.3599 11.3389 64.2695 11.7866 64.0852C12.2343 63.9009 12.6376 63.6267 12.9705 63.2804C13.5847 62.7043 14.0577 61.9994 14.3538 61.2185C14.5436 60.6997 14.654 60.1564 14.6815 59.606C14.6903 59.4904 14.663 59.3749 14.6032 59.2748C14.5433 59.1747 14.4538 59.0949 14.3466 59.046Z" fill="#222221"/>
<path d="M73.3637 57.1767C73.2326 57.1339 73.1113 57.1874 72.9996 57.3373C72.3589 58.4848 71.5562 59.538 70.6152 60.4658C69.7684 61.3864 68.6995 62.0843 67.5064 62.4956C68.7842 60.9568 69.7549 59.196 70.3677 57.3051C70.8739 55.9559 71.1566 54.536 71.2049 53.0993C71.2049 51.8614 71.0047 50.9232 70.5643 50.2776C70.3752 49.9731 70.1071 49.7232 69.7873 49.5534C69.4676 49.3836 69.1076 49.2999 68.7441 49.3108C67.5622 49.3108 66.4216 49.966 65.3222 51.2764C65.3131 51.0697 65.2492 50.869 65.1368 50.6938C65.0245 50.5187 64.8676 50.3752 64.6815 50.2776C64.2537 49.9976 63.7306 49.8938 63.2253 49.9886C62.9707 50.0238 62.7306 50.1264 62.5311 50.2855C62.3316 50.4445 62.1802 50.6539 62.0932 50.8911C61.6563 51.9042 61.2025 53.0933 60.7317 54.4584C60.1338 54.8137 59.4978 55.1032 58.8351 55.3217C59.2283 53.5167 59.2173 52.066 58.8023 50.9696C58.3837 49.8745 57.6738 49.3251 56.6655 49.3251C55.5442 49.3251 54.6002 49.8305 53.8333 50.8412C53.3746 50.0671 52.8467 49.7995 52.257 50.035C51.2013 50.5106 50.2136 51.7627 49.2938 53.7914C48.5908 55.317 48.1469 56.9449 47.9796 58.6108C46.9215 60.0734 46.0551 60.8035 45.3804 60.8011C45.2977 60.8072 45.2146 60.7946 45.1376 60.7643C45.0606 60.734 44.9917 60.6868 44.9363 60.6263C44.8214 60.4539 44.7641 60.2506 44.7725 60.0448C44.7561 59.7763 44.7561 59.5071 44.7725 59.2386C44.8094 58.8855 44.8702 58.5351 44.9545 58.1898C45.0528 57.7618 45.1474 57.3836 45.2348 57.0626C45.3222 56.7415 45.4423 56.3206 45.5988 55.8033C45.708 55.4466 45.8573 54.9828 46.043 54.3764L46.407 53.135C46.8848 53.1219 47.3597 53.0573 47.8231 52.9423C48.2381 52.7497 48.5888 52.2229 48.8751 51.362C49.1154 50.5701 49.0608 50.1919 48.7113 50.2348C48.6171 50.2378 48.5234 50.2485 48.431 50.2669L47.9214 50.3489C47.6993 50.381 47.4918 50.406 47.2952 50.4274C47.6229 49.4821 47.9651 48.5225 48.3145 47.5414C48.664 46.5604 48.9516 45.7756 49.17 45.1728C49.3884 44.5699 49.534 44.1739 49.5996 43.9813C49.6615 43.7629 49.6536 43.5312 49.5767 43.3175C49.4999 43.1037 49.3579 42.9183 49.17 42.7862C48.9695 42.6076 48.7321 42.4733 48.4739 42.3927C48.2157 42.312 47.9428 42.2869 47.6738 42.3189C47.3919 42.3426 47.1228 42.4448 46.8983 42.6136C46.6738 42.7824 46.5033 43.0107 46.407 43.2714C46.0138 44.2227 45.1147 46.8018 43.7095 51.0089C43.3315 51.0373 42.9572 51.1018 42.5919 51.2015C42.3406 51.2847 42.1105 51.4198 41.917 51.5976C41.7236 51.7755 41.5714 51.992 41.4707 52.2324C41.2086 52.7711 41.2741 53.0494 41.6709 53.0708C41.7364 53.0708 41.8347 53.0708 41.9658 53.0886L42.4754 53.1207C42.6829 53.1207 42.8649 53.1207 43.0178 53.1207C42.6538 54.2408 42.4791 54.8187 42.4609 54.8615C42.0677 56.2385 41.7328 57.4336 41.4561 58.4467C40.9497 59.1654 40.3823 59.8408 39.7597 60.4658C38.9129 61.3864 37.844 62.0843 36.6509 62.4956C37.9287 60.9568 38.8994 59.196 39.5122 57.3051C40.0195 55.9561 40.3033 54.5362 40.3531 53.0993C40.3531 51.8614 40.1493 50.9232 39.7088 50.2776C39.5197 49.9731 39.2516 49.7232 38.9319 49.5534C38.6121 49.3836 38.2521 49.2999 37.8886 49.3108C36.7067 49.3108 35.5661 49.966 34.4667 51.2764C34.4576 51.0697 34.3937 50.869 34.2814 50.6938C34.169 50.5187 34.0121 50.3752 33.826 50.2776C33.3985 49.9968 32.8751 49.893 32.3699 49.9886C32.1145 50.0232 31.8737 50.1255 31.6735 50.2846C31.4733 50.4437 31.3213 50.6535 31.2341 50.8911C30.1877 53.4275 29.2788 56.0162 28.5111 58.6465C27.4991 60.0734 26.7395 60.7868 26.2323 60.7868C25.992 60.7868 25.8318 60.6334 25.7554 60.3195C25.6805 59.9022 25.6979 59.474 25.8063 59.0638C25.9155 58.5359 26.0502 57.9936 26.2177 57.4015C26.3851 56.8093 26.5817 56.1886 26.8402 55.5001C27.0987 54.8116 27.3134 54.223 27.4991 53.7164C27.6847 53.2099 27.8631 52.739 28.0743 52.2645C28.2854 51.7901 28.3728 51.5511 28.3728 51.5261C28.4598 51.3256 28.4729 51.1016 28.4098 50.8927C28.3467 50.6837 28.2113 50.5028 28.0269 50.381C27.8225 50.2146 27.5859 50.0903 27.3314 50.0155C27.0768 49.9407 26.8095 49.917 26.5453 49.9458C26.2646 49.9629 25.9935 50.0524 25.7596 50.2052C25.5256 50.3581 25.337 50.5689 25.213 50.8162C24.919 51.3608 24.6553 51.9205 24.423 52.4929C24.6068 51.7497 24.5138 50.9667 24.1609 50.2847C23.9964 49.9676 23.7402 49.705 23.4242 49.5299C23.1082 49.3548 22.7465 49.2748 22.3844 49.3001C21.1758 49.3001 20 49.9066 18.846 51.123C17.692 52.3395 16.7674 54.1267 16.0684 56.474C15.4083 58.9021 15.287 60.8368 15.7044 62.278C16.1218 63.7192 16.9166 64.4398 18.0888 64.4398C19.545 64.4398 20.8166 63.5467 21.9039 61.7607V62.1174C21.9039 63.6656 22.4524 64.4398 23.5493 64.4398C24.2874 64.3939 24.9908 64.1162 25.5551 63.6478C26.3397 63.0624 27.0326 62.3678 27.6119 61.5859L27.6884 61.486C26.4749 65.7834 25.8682 68.2294 25.8682 68.824C25.8693 69.1488 25.9478 69.4688 26.0976 69.7586C26.2311 70.0755 26.4474 70.3525 26.7247 70.5616C27.0021 70.7707 27.3306 70.9047 27.6775 70.9501C28.3582 71.0571 28.7404 70.8324 28.8278 70.2723C29.0705 68.6599 29.7391 65.963 30.8336 62.1817C30.813 62.7601 30.9926 63.3283 31.3433 63.7941C31.5229 64.0108 31.7526 64.1825 32.0134 64.2948C32.2743 64.4071 32.5587 64.4568 32.8431 64.4398C33.8282 64.5056 34.8171 64.3844 35.7554 64.083C36.6577 63.8035 37.5155 63.4012 38.3036 62.888C39.0408 62.3948 39.724 61.8281 40.3422 61.1971C40.5715 60.9652 40.7754 60.7476 40.9683 60.5371C40.855 61.0619 40.7892 61.5955 40.7717 62.1317C40.7717 63.6799 41.4161 64.454 42.712 64.454C44.3162 64.454 46.0636 63.1139 47.9541 60.4337C48.0233 61.6573 48.3182 62.6133 48.8788 63.2875C49.2063 63.6768 49.6229 63.985 50.0948 64.1871C50.5666 64.3891 51.0804 64.4794 51.5945 64.4505C52.8225 64.4505 54.0444 63.8488 55.2603 62.6454C56.4762 61.442 57.4906 59.6584 58.3036 57.2944C58.3473 57.1874 58.4237 56.9377 58.5366 56.5525C59.1348 56.3746 59.7159 56.1454 60.273 55.8675C59.7488 57.4585 59.2028 59.2505 58.6349 61.2435C57.3608 65.7026 56.7237 68.2342 56.7237 68.8382C56.726 69.1633 56.8058 69.4834 56.9567 69.7729C57.0903 70.0898 57.3065 70.3667 57.5839 70.5759C57.8612 70.785 58.1897 70.919 58.5366 70.9643C59.2137 71.0714 59.5996 70.8466 59.6869 70.2866C59.9296 68.6741 60.5982 65.9773 61.6928 62.1959C61.6721 62.7743 61.8517 63.3426 62.2024 63.8083C62.3814 64.0248 62.6105 64.1963 62.8707 64.3086C63.131 64.4209 63.4148 64.4708 63.6986 64.454C64.6897 64.5219 65.6849 64.4007 66.6291 64.0973C67.5314 63.8178 68.3891 63.4155 69.1773 62.9022C69.9138 62.4081 70.5969 61.8415 71.2159 61.2113C71.7628 60.6686 72.2735 60.0919 72.7448 59.4848C73.1053 59.0202 73.4302 58.5302 73.7168 58.0186C73.7598 57.9389 73.7823 57.8501 73.7823 57.76C73.7823 57.6698 73.7598 57.581 73.7168 57.5013C73.6847 57.4258 73.6367 57.3579 73.5758 57.3019C73.5149 57.2459 73.4426 57.2033 73.3637 57.1767ZM23.4583 53.5488C23.3036 54.8948 22.9946 56.2195 22.5373 57.4978C22.1381 58.7531 21.5739 59.9523 20.8591 61.0651C20.2439 61.9676 19.767 62.3315 19.403 62.1603C19.039 61.989 18.9334 61.3219 19.039 60.1626C19.1898 58.824 19.4989 57.5072 19.96 56.2385C20.3676 54.9864 20.9313 53.7882 21.6381 52.6712C22.2534 51.7473 22.7303 51.3692 23.0943 51.544C23.4583 51.7188 23.5675 52.4001 23.4583 53.5488ZM35.6316 57.5335C35.1518 58.7984 34.5226 60.004 33.7568 61.1257C33.0967 62.039 32.5919 62.41 32.2424 62.2387C31.893 62.0675 31.8056 61.3957 31.9803 60.2232C32.2053 58.871 32.58 57.5468 33.0979 56.2742C33.5802 55.0181 34.2093 53.8211 34.9727 52.7069C35.6316 51.7937 36.134 51.4227 36.4871 51.5975C36.8402 51.7723 36.9239 52.4572 36.7492 53.5952C36.5156 54.942 36.1411 56.2618 35.6316 57.5335ZM55.0091 57.2088C54.5592 58.5396 53.9364 59.808 53.1562 60.983C52.4863 61.9343 51.9221 62.2994 51.4634 62.0782C51.046 61.8166 50.9028 61.0698 51.0339 59.8379C51.1825 58.5365 51.5145 57.2616 52.0204 56.0495C52.3723 55.1671 52.712 54.4144 53.0397 53.7914C53.0975 54.4158 53.3358 55.0112 53.7265 55.5078C54.1172 56.0044 54.6442 56.3816 55.2457 56.5953C55.1784 56.8039 55.0994 57.0087 55.0091 57.2088ZM55.5333 55.3717C54.6135 54.896 54.1536 54.0256 54.1536 52.7604C54.133 52.3937 54.2494 52.0323 54.4813 51.7437C54.5712 51.6279 54.702 51.5491 54.8481 51.5227C54.9942 51.4963 55.145 51.5243 55.2712 51.601C55.5333 51.7295 55.6935 52.1468 55.7481 52.8567C55.7914 53.7007 55.7192 54.5465 55.5333 55.3717ZM66.4907 57.5335C66.0113 58.7993 65.3808 60.0051 64.6123 61.1257C63.957 62.039 63.451 62.41 63.1016 62.2387C62.7521 62.0675 62.6611 61.3968 62.8358 60.2232C63.0639 58.8712 63.4398 57.5473 63.957 56.2742C64.4378 55.0175 65.067 53.8203 65.8318 52.7069C66.4907 51.7937 66.9931 51.4227 67.3462 51.5975C67.6993 51.7723 67.783 52.4572 67.6083 53.5952C67.3747 54.942 67.0002 56.2618 66.4907 57.5335Z" fill="#222221"/>
<path d="M92.1514 47.3773C92.1495 46.2745 91.7201 45.2136 90.9501 44.4093C90.1493 43.527 88.9698 43.087 87.4117 43.0894C86.7022 43.0957 86.0015 43.2449 85.3534 43.5278C84.7052 43.8107 84.1233 44.2213 83.644 44.734C82.5373 45.8279 81.984 47.3428 81.984 49.2787C82.0289 50.5922 82.3369 51.8843 82.8904 53.0814C83.4899 54.5084 84.0966 55.8687 84.7106 57.1624C85.3246 58.4562 85.6255 59.5038 85.6134 60.3052C85.6134 61.9605 85.0783 62.8023 84.0007 62.8023C83.8265 62.8013 83.6547 62.7616 83.4984 62.6862C83.342 62.6108 83.2051 62.5018 83.0979 62.3671C82.831 62.0445 82.6497 61.6621 82.5701 61.2541C82.4824 60.8656 82.4168 60.4726 82.3735 60.0769C82.3407 59.7452 82.3225 59.4277 82.3225 59.1244C82.3446 58.5293 82.1597 57.9444 81.7983 57.4657C81.6331 57.253 81.4183 57.0821 81.172 56.9673C80.9256 56.8525 80.6549 56.7971 80.3822 56.8057C80.134 56.8114 79.8912 56.8776 79.6757 56.9985C79.4602 57.1193 79.2789 57.2909 79.1482 57.4978C78.7678 58.1129 78.5899 58.8278 78.6385 59.5454C78.6259 60.1955 78.7461 60.8415 78.9922 61.4453C79.2383 62.0492 79.6052 62.5987 80.0713 63.0614C80.5374 63.5242 81.0933 63.8908 81.7063 64.1398C82.3192 64.3888 82.9768 64.515 83.6403 64.5111C85.0501 64.5023 86.4187 64.044 87.5391 63.2054C88.1321 62.7871 88.6091 62.2303 88.927 61.5855C89.2448 60.9408 89.3934 60.2285 89.3593 59.5133C89.3088 58.3075 89.013 57.1238 88.4893 56.0316C87.9068 54.6974 87.3256 53.3109 86.7455 51.8721C86.1985 50.5943 85.9033 49.2265 85.8755 47.8411C85.8755 46.8541 86.083 46.124 86.498 45.6508C86.66 45.4386 86.8682 45.2645 87.1075 45.1411C87.3468 45.0177 87.6112 44.9481 87.8813 44.9373C88.0587 44.9351 88.2343 44.9732 88.3941 45.0487C88.5539 45.1242 88.6936 45.2351 88.8023 45.3725C89.0603 45.7112 89.1891 46.1277 89.1664 46.5497C89.1295 47.9622 88.8052 49.3533 88.2126 50.6414C88.1343 50.774 88.1063 50.9294 88.1337 51.0801C88.161 51.2309 88.2418 51.3674 88.3618 51.4655C88.6949 51.7167 89.1115 51.8375 89.5304 51.8044C90.4077 51.8044 91.063 51.337 91.5035 50.4024C91.9417 49.4523 92.1628 48.4199 92.1514 47.3773Z" fill="#222221"/>
<path d="M123.666 48.8578C124.237 48.8578 124.823 48.5652 125.428 47.9731C126.033 47.3741 126.499 46.6536 126.793 45.8612C127.069 45.1809 127.126 44.434 126.957 43.7209C126.908 43.4685 126.768 43.2417 126.563 43.0819C126.358 42.9221 126.101 42.84 125.839 42.8504C125.268 42.8504 124.681 43.143 124.077 43.7209C123.466 44.3203 123.009 45.0541 122.745 45.8612C122.448 46.5264 122.386 47.2692 122.566 47.9731C122.612 48.2249 122.747 48.4526 122.949 48.6149C123.151 48.7772 123.405 48.8633 123.666 48.8578Z" fill="#222221"/>
<path d="M149.953 57.4978C149.925 57.4279 149.878 57.3668 149.817 57.3215C149.756 57.2762 149.683 57.2483 149.607 57.2409C149.533 57.233 149.459 57.2472 149.394 57.2816C149.329 57.316 149.276 57.369 149.243 57.4336C147.816 59.6691 146.786 60.7868 146.152 60.7868C145.788 60.7868 145.613 60.4301 145.657 59.7559C145.723 58.895 146.315 56.8319 147.434 53.5666C147.608 52.9524 147.691 52.3169 147.681 51.6795C147.681 51.0847 147.491 50.5047 147.139 50.0207C146.972 49.7899 146.749 49.6037 146.491 49.4791C146.232 49.3544 145.945 49.2954 145.657 49.3072C144.296 49.3072 142.913 50.4571 141.511 52.7568C141.755 52.0434 141.897 51.6403 141.94 51.5332C142.025 51.3279 142.035 51.1003 141.968 50.8886C141.902 50.6769 141.764 50.494 141.576 50.3703C141.371 50.1997 141.133 50.0719 140.875 49.9946C140.618 49.9173 140.348 49.8922 140.08 49.9208C139.796 49.9361 139.523 50.0287 139.29 50.1881C139.057 50.3476 138.874 50.5676 138.762 50.8233C138.248 51.9644 137.818 53.1398 137.474 54.3407C136.827 54.7415 136.134 55.0649 135.41 55.3039C135.803 53.4988 135.792 52.0481 135.377 50.9518C134.962 49.8554 134.251 49.3084 133.244 49.3108C132.125 49.3108 131.182 49.8162 130.415 50.8269C129.953 50.0528 129.428 49.7853 128.835 50.0207C127.784 50.4963 126.798 51.7485 125.876 53.7771C125.168 55.3076 124.723 56.9419 124.558 58.6143C123.534 60.0627 122.767 60.7868 122.257 60.7868C122.013 60.7868 121.857 60.6334 121.78 60.3195C121.705 59.9023 121.722 59.4744 121.827 59.0638C121.937 58.5358 122.075 57.9936 122.239 57.4014C122.403 56.8093 122.603 56.1886 122.865 55.5001C123.127 54.8116 123.335 54.223 123.524 53.7164C123.713 53.2099 123.888 52.739 124.099 52.2645C124.31 51.7901 124.394 51.5511 124.394 51.5261C124.482 51.3274 124.498 51.1051 124.438 50.8965C124.378 50.6879 124.247 50.5058 124.066 50.381C123.863 50.2131 123.626 50.0879 123.371 50.0131C123.117 49.9382 122.849 49.9153 122.585 49.9458C122.302 49.9611 122.028 50.0498 121.791 50.2027C121.555 50.3556 121.364 50.5673 121.238 50.8162C120.624 51.9126 119.916 53.6962 119.115 56.1672C118.861 56.952 118.649 57.6833 118.475 58.3717C117.339 59.9842 116.417 60.7916 115.708 60.794C115.625 60.7998 115.542 60.7871 115.465 60.7568C115.388 60.7265 115.32 60.6794 115.264 60.6192C115.149 60.4467 115.092 60.2435 115.1 60.0377C115.09 59.7688 115.096 59.4996 115.118 59.2315C115.154 58.8784 115.213 58.528 115.297 58.1827C115.399 57.7546 115.49 57.3765 115.577 57.0554C115.664 56.7344 115.784 56.3134 115.941 55.7962C116.05 55.4394 116.196 54.9757 116.385 54.3692L116.749 53.1278C117.226 53.1149 117.7 53.0503 118.162 52.9352C118.579 52.7426 118.93 52.2158 119.214 51.3549C119.458 50.5629 119.399 50.1848 119.05 50.2276C118.956 50.2306 118.862 50.2414 118.77 50.2597L118.26 50.3418C118.041 50.3739 117.834 50.3988 117.637 50.4202C117.965 49.4749 118.304 48.5153 118.657 47.5343C119.01 46.5533 119.29 45.7685 119.512 45.1656C119.734 44.5627 119.876 44.1668 119.938 43.9741C120 43.7561 119.992 43.5248 119.916 43.3112C119.84 43.0976 119.699 42.9119 119.512 42.7791C119.314 42.6003 119.078 42.4652 118.822 42.3828C118.566 42.3004 118.295 42.2725 118.027 42.3011C117.745 42.3247 117.476 42.427 117.251 42.5958C117.027 42.7645 116.856 42.9928 116.76 43.2535C116.362 44.2048 115.463 46.784 114.063 50.991C113.683 51.0197 113.308 51.0842 112.941 51.1836C112.691 51.2668 112.461 51.402 112.268 51.5799C112.075 51.7578 111.924 51.9742 111.824 52.2146C111.562 52.7533 111.627 53.0315 112.02 53.0529C112.086 53.0529 112.184 53.0529 112.319 53.0707L112.829 53.1028C113.036 53.1028 113.218 53.1028 113.371 53.1028C113.007 54.223 112.832 54.8009 112.81 54.8437C112.537 55.7248 112.293 56.5275 112.082 57.2623C112.012 57.2985 111.955 57.3544 111.918 57.4229C110.491 59.6584 109.461 60.7761 108.828 60.7761C108.584 60.7761 108.427 60.6227 108.351 60.3088C108.274 59.8918 108.291 59.4635 108.398 59.0531C108.507 58.5251 108.646 57.9829 108.81 57.3907C108.973 56.7986 109.174 56.1779 109.436 55.4894C109.698 54.8009 109.905 54.2123 110.095 53.7057C110.284 53.1992 110.459 52.7283 110.67 52.2538C110.881 51.7794 110.965 51.5404 110.965 51.5154C111.053 51.3151 111.067 51.0907 111.004 50.8814C110.941 50.6721 110.804 50.4912 110.619 50.3703C110.415 50.2037 110.178 50.0793 109.923 50.0045C109.669 49.9297 109.401 49.9061 109.137 49.9351C108.857 49.9532 108.586 50.0431 108.352 50.1959C108.119 50.3486 107.93 50.5588 107.805 50.8055C107.512 51.3503 107.25 51.9099 107.019 52.4821C107.203 51.7387 107.109 50.955 106.753 50.274C106.589 49.9565 106.333 49.6937 106.016 49.5186C105.7 49.3434 105.339 49.2636 104.976 49.2894C103.763 49.2894 102.585 49.897 101.442 51.1123C100.299 52.3276 99.3714 54.1112 98.6604 56.4633C98.4404 57.2579 98.2739 58.0659 98.1616 58.8819C97.2079 60.1304 96.4216 60.7511 95.7991 60.7511C95.7163 60.7572 95.6332 60.7446 95.5563 60.7143C95.4793 60.684 95.4104 60.6368 95.3549 60.5764C95.24 60.4039 95.1828 60.2007 95.1911 59.9949C95.1747 59.7264 95.1747 59.4572 95.1911 59.1887C95.2281 58.8355 95.2889 58.4851 95.3731 58.1399C95.4714 57.7118 95.5624 57.3337 95.6534 57.0126C95.7444 56.6916 95.8609 56.2706 96.0175 55.7534C96.1267 55.3966 96.2759 54.9329 96.4616 54.3264L96.8256 53.085C97.3034 53.072 97.7783 53.0074 98.2417 52.8924C98.6567 52.6997 99.0074 52.173 99.2938 51.3121C99.534 50.5201 99.4794 50.142 99.13 50.1848C99.0358 50.1878 98.942 50.1986 98.8497 50.2169L98.34 50.299C98.1179 50.3311 97.9104 50.356 97.7139 50.3774C98.0415 49.4321 98.3837 48.4725 98.7332 47.4915L99.5886 45.1228C99.8071 44.5235 99.9527 44.124 100.018 43.9313C100.08 43.713 100.072 43.4813 99.9954 43.2675C99.9186 43.0538 99.7766 42.8683 99.5886 42.7363C99.3882 42.5576 99.1507 42.4234 98.8926 42.3427C98.6344 42.2621 98.3615 42.2369 98.0925 42.269C97.8105 42.2926 97.5414 42.3949 97.3169 42.5636C97.0924 42.7324 96.9219 42.9607 96.8256 43.2214C96.4325 44.1727 95.5333 46.7519 94.1281 50.9589C93.7501 50.9873 93.3758 51.0518 93.0106 51.1515C92.7593 51.2347 92.5291 51.3698 92.3357 51.5477C92.1422 51.7255 91.99 51.942 91.8893 52.1825C91.6272 52.7212 91.6928 52.9994 92.0896 53.0208C92.1551 53.0208 92.2534 53.0208 92.3844 53.0386L92.8941 53.0707C93.1016 53.0707 93.2836 53.0707 93.4365 53.0707C93.0724 54.1909 92.8977 54.7688 92.8795 54.8116C91.7146 58.5335 91.1334 60.9628 91.1358 62.0996C91.1358 63.6478 91.7801 64.4219 93.0761 64.4219C94.6002 64.4219 96.2553 63.2126 98.0415 60.794C98.0562 61.2891 98.1283 61.7809 98.2563 62.2601C98.6591 63.7013 99.454 64.4219 100.641 64.4219C102.097 64.4219 103.37 63.5289 104.459 61.7429V62.0996C104.459 63.6478 105.005 64.4219 106.105 64.4219C106.843 64.3751 107.546 64.0975 108.111 63.63C108.895 63.0446 109.588 62.3499 110.167 61.5681C110.653 60.9378 111.047 60.3992 111.351 59.9521C111.177 60.6541 111.072 61.3708 111.037 62.0925C111.037 63.6407 111.684 64.4148 112.978 64.4148C114.514 64.4148 116.179 63.1924 117.972 60.7476C117.915 61.1937 117.885 61.6428 117.881 62.0925C117.881 63.6407 118.427 64.4148 119.527 64.4148C120.278 64.3697 120.993 64.0867 121.565 63.6086C122.333 63.0261 123.014 62.3417 123.589 61.5752C123.921 61.1435 124.212 60.7476 124.474 60.3837C124.54 61.6144 124.838 62.5705 125.399 63.2376C125.724 63.6279 126.14 63.9369 126.612 64.1391C127.083 64.3413 127.597 64.4309 128.111 64.4005C129.341 64.4005 130.564 63.7988 131.78 62.5954C132.996 61.3921 134.01 59.6084 134.823 57.2445C134.867 57.1375 134.944 56.8878 135.053 56.5025C135.736 56.3006 136.397 56.0317 137.026 55.6998C136.938 55.9959 136.851 56.2992 136.764 56.6166C135.951 59.5062 135.545 61.3814 135.548 62.2423C135.543 62.5642 135.61 62.8832 135.744 63.1769C135.882 63.5003 136.104 63.7833 136.386 63.9983C136.669 64.2133 137.003 64.3531 137.357 64.4041C138.034 64.4897 138.42 64.2542 138.507 63.6906C138.704 62.5538 139.164 60.662 139.887 58.015C140.351 56.7661 140.976 55.5805 141.747 54.487C142.548 53.3359 143.155 52.7604 143.568 52.7604C143.677 52.7604 143.742 52.8317 143.764 52.9709C143.784 53.1587 143.778 53.3483 143.746 53.5345C143.713 53.7699 143.677 53.9875 143.633 54.1802C143.589 54.3728 143.535 54.5761 143.469 54.7902C142.304 58.5121 141.723 60.9414 141.726 62.0782C141.726 63.6264 142.272 64.4005 143.371 64.4005C144.12 64.3582 144.835 64.0805 145.41 63.6086C146.194 63.0232 146.887 62.3285 147.466 61.5467C148.111 60.6976 148.606 60.0127 148.944 59.499C149.283 58.9853 149.61 58.4574 149.916 57.9187C149.977 57.7866 149.99 57.638 149.953 57.4978ZM106.032 53.5488C105.879 54.8951 105.57 56.22 105.111 57.4978C104.713 58.7537 104.149 59.9531 103.433 61.0651C102.821 61.9676 102.341 62.3315 101.977 62.1602C101.613 61.989 101.503 61.3219 101.613 60.1625C101.765 58.8243 102.074 57.5076 102.534 56.2385C102.943 54.9869 103.506 53.789 104.212 52.6712C104.827 51.7473 105.304 51.3691 105.668 51.5439C106.032 51.7187 106.141 52.4001 106.032 53.5488ZM131.562 57.2088C131.109 58.5391 130.485 59.8074 129.705 60.983C129.035 61.9343 128.47 62.2994 128.009 62.0782C127.594 61.8178 127.448 61.0722 127.583 59.8379C127.73 58.5362 128.062 57.261 128.569 56.0494C128.869 55.2801 129.21 54.5264 129.589 53.7913C129.646 54.4155 129.883 55.0108 130.273 55.5074C130.663 56.004 131.19 56.3814 131.791 56.5952C131.726 56.8037 131.65 57.0085 131.562 57.2088ZM132.09 55.3717C131.17 54.896 130.709 54.0256 130.706 52.7604C130.685 52.3931 130.803 52.0311 131.037 51.7437C131.127 51.6282 131.257 51.5495 131.402 51.5231C131.548 51.4967 131.698 51.5245 131.824 51.601C132.09 51.7294 132.246 52.1468 132.304 52.8567C132.346 53.7006 132.273 54.5462 132.09 55.3717Z" fill="#222221"/>
</g>
<defs>
<clipPath id="clip0_1_18">
<rect width="150" height="71" fill="white"/>
</clipPath>
</defs>
</svg>
