<svg width="50" height="43" viewBox="0 0 50 43" fill="none" xmlns="http://www.w3.org/2000/svg">
<g clip-path="url(#clip0_23_42)">
<path d="M48.1594 0H1.8406C0.824065 0 0 0.818716 0 1.82865V6.1251C0 7.13504 0.824065 7.95376 1.8406 7.95376H48.1594C49.1759 7.95376 50 7.13504 50 6.1251V1.82865C50 0.818716 49.1759 0 48.1594 0Z" fill="#97BF0E"/>
<path d="M48.1594 11.6821H1.8406C0.824065 11.6821 0 12.5008 0 13.5107V17.8072C0 18.8171 0.824065 19.6358 1.8406 19.6358H48.1594C49.1759 19.6358 50 18.8171 50 17.8072V13.5107C50 12.5008 49.1759 11.6821 48.1594 11.6821Z" fill="#97BF0E"/>
<path d="M48.1594 23.3642H1.8406C0.824065 23.3642 0 24.1829 0 25.1928V29.4893C0 30.4992 0.824065 31.3179 1.8406 31.3179H48.1594C49.1759 31.3179 50 30.4992 50 29.4893V25.1928C50 24.1829 49.1759 23.3642 48.1594 23.3642Z" fill="#97BF0E"/>
<path d="M48.1594 35.0285H1.8406C0.824065 35.0285 0 35.8472 0 36.8572V41.1536C0 42.1635 0.824065 42.9823 1.8406 42.9823H48.1594C49.1759 42.9823 50 42.1635 50 41.1536V36.8572C50 35.8472 49.1759 35.0285 48.1594 35.0285Z" fill="#97BF0E"/>
</g>
<defs>
<clipPath id="clip0_23_42">
<rect width="50" height="43" fill="white"/>
</clipPath>
</defs>
</svg>
