<svg width="19" height="19" viewBox="0 0 19 19" fill="none" xmlns="http://www.w3.org/2000/svg">
<g clip-path="url(#clip0_19_102)">
<path d="M15.5201 0.00997758C15.9882 0.01228 16.4459 0.147531 16.8401 0.399977C17.3034 0.714055 17.68 1.13984 17.9351 1.63797C18.1903 2.1361 18.3158 2.69051 18.3001 3.24998L18.3001 15.53C18.3158 16.0894 18.1903 16.6439 17.9351 17.142C17.68 17.6401 17.3034 18.0659 16.8401 18.38C16.4869 18.6104 16.0797 18.7445 15.6587 18.7691C15.2377 18.7936 14.8177 18.7078 14.4401 18.52L1.71011 12.39C1.18749 12.0828 0.754197 11.6443 0.453147 11.1181C0.152097 10.5919 -0.0062645 9.99621 -0.00626455 9.38998C-0.00626461 8.78375 0.152097 8.18803 0.453147 7.66183C0.754197 7.13564 1.18749 6.69722 1.7101 6.38998L14.4401 0.259978C14.7758 0.0938548 15.1456 0.00825711 15.5201 0.00997758ZM15.5201 16.76C15.6158 16.7592 15.7094 16.7315 15.7901 16.68C15.9647 16.5436 16.1033 16.3666 16.1939 16.1645C16.2846 15.9623 16.3244 15.7411 16.3101 15.52L16.3101 3.24998C16.3244 3.0289 16.2846 2.80765 16.1939 2.60548C16.1033 2.40332 15.9647 2.22635 15.7901 2.08998C15.7174 2.04685 15.6345 2.02409 15.5501 2.02409C15.4656 2.02409 15.3827 2.04685 15.3101 2.08998L2.59011 8.21998C2.39647 8.34896 2.24063 8.52718 2.13869 8.73633C2.03676 8.94547 1.99238 9.178 2.01009 9.40999C1.99265 9.64335 2.0371 9.87718 2.13894 10.0879C2.24077 10.2986 2.39641 10.4787 2.59011 10.61L15.3201 16.74C15.3808 16.7623 15.4461 16.7692 15.5101 16.76L15.5201 16.76Z" fill="white"/>
</g>
<defs>
<clipPath id="clip0_19_102">
<rect width="18.3" height="18.76" fill="white" transform="translate(18.3 18.76) rotate(180)"/>
</clipPath>
</defs>
</svg>
