<svg width="19" height="19" viewBox="0 0 19 19" fill="none" xmlns="http://www.w3.org/2000/svg">
<g clip-path="url(#clip0_19_102)">
<path d="M2.77995 18.75C2.31188 18.7477 1.8541 18.6125 1.45994 18.36C0.996681 18.046 0.620089 17.6202 0.364907 17.122C0.109724 16.6239 -0.015779 16.0695 -2.26239e-05 15.51V3.23003C-0.015779 2.67056 0.109724 2.11615 0.364907 1.61801C0.620089 1.11988 0.996681 0.694102 1.45994 0.380023C1.81311 0.14961 2.22036 0.0154804 2.64133 -0.00907613C3.0623 -0.0336327 3.4824 0.0522364 3.85996 0.240024L16.5899 6.37003C17.1126 6.67726 17.5459 7.11568 17.8469 7.64188C18.148 8.16808 18.3063 8.7638 18.3063 9.37003C18.3063 9.97626 18.148 10.572 17.8469 11.0982C17.5459 11.6244 17.1126 12.0628 16.5899 12.37L3.85996 18.5C3.52428 18.6662 3.15448 18.7518 2.77995 18.75ZM2.77995 2.00003C2.68422 2.00083 2.5907 2.02856 2.50999 2.08004C2.33538 2.21641 2.19674 2.39337 2.10612 2.59554C2.01549 2.7977 1.9756 3.01894 1.98997 3.24002V15.51C1.9756 15.7311 2.01549 15.9524 2.10612 16.1545C2.19674 16.3567 2.33538 16.5337 2.50999 16.67C2.58261 16.7132 2.66551 16.7359 2.74998 16.7359C2.83445 16.7359 2.91734 16.7132 2.98997 16.67L15.7099 10.54C15.9036 10.411 16.0594 10.2328 16.1614 10.0237C16.2633 9.81454 16.3077 9.58201 16.29 9.35002C16.3074 9.11666 16.2629 8.88283 16.1611 8.67214C16.0593 8.46144 15.9036 8.28134 15.7099 8.15003L2.97996 2.02002C2.91926 1.99771 2.85397 1.99084 2.78996 2.00003H2.77995Z" fill="white"/>
</g>
<defs>
<clipPath id="clip0_19_102">
<rect width="18.3" height="18.76" fill="white"/>
</clipPath>
</defs>
</svg>
